<svg width="184" height="26" viewBox="0 0 184 26" fill="none" xmlns="http://www.w3.org/2000/svg">
<g clip-path="url(#clip0_377_445)">
<path d="M4 12.7681C4 12.2158 3.55228 11.7681 3 11.7681H1C0.447715 11.7681 0 12.2158 0 12.7681C0 13.3204 0.447715 13.7681 1 13.7681H3C3.55228 13.7681 4 13.3204 4 12.7681Z" fill="#EFC224"/>
<path d="M18.56 2.272L26.368 22.4C26.688 23.2107 27.0507 23.7547 27.456 24.032C27.8613 24.288 28.2347 24.4267 28.576 24.448V25.088C28.1493 25.0453 27.6267 25.024 27.008 25.024C26.3893 25.0027 25.7707 24.992 25.152 24.992C24.32 24.992 23.5413 25.0027 22.816 25.024C22.0907 25.024 21.504 25.0453 21.056 25.088V24.448C22.144 24.4053 22.8373 24.224 23.136 23.904C23.4347 23.5627 23.3707 22.848 22.944 21.76L16.992 5.856L17.504 5.44L11.936 19.904C11.5947 20.7573 11.392 21.4827 11.328 22.08C11.264 22.656 11.3173 23.1147 11.488 23.456C11.68 23.7973 11.9893 24.0427 12.416 24.192C12.864 24.3413 13.4187 24.4267 14.08 24.448V25.088C13.4827 25.0453 12.8533 25.024 12.192 25.024C11.552 25.0027 10.9547 24.992 10.4 24.992C9.86667 24.992 9.408 25.0027 9.024 25.024C8.66133 25.024 8.32 25.0453 8 25.088V24.448C8.42667 24.3413 8.864 24.096 9.312 23.712C9.76 23.3067 10.1653 22.624 10.528 21.664L18.048 2.272C18.1333 2.272 18.2187 2.272 18.304 2.272C18.3893 2.272 18.4747 2.272 18.56 2.272ZM22.464 15.872V16.512H12.928L13.248 15.872H22.464ZM43.8683 0V21.6C43.8683 22.56 44.0389 23.2747 44.3802 23.744C44.7429 24.192 45.3829 24.416 46.3003 24.416V25.088C45.6389 25.024 44.9776 24.992 44.3163 24.992C43.6976 24.992 43.1003 25.024 42.5243 25.088C41.9696 25.152 41.4576 25.2693 40.9883 25.44V3.84C40.9883 2.88 40.8176 2.176 40.4763 1.728C40.1349 1.25867 39.4949 1.024 38.5563 1.024V0.352001C39.2389 0.416001 39.9003 0.448001 40.5403 0.448001C41.1589 0.448001 41.7456 0.416001 42.3003 0.352001C42.8763 0.266671 43.3989 0.149331 43.8683 0ZM37.1483 8.16C38.0869 8.16 38.9616 8.384 39.7723 8.832C40.6043 9.28 41.1589 10.048 41.4363 11.136L41.0203 11.456C40.7216 10.56 40.2523 9.9093 39.6123 9.504C38.9936 9.0987 38.2576 8.896 37.4043 8.896C36.1456 8.896 35.0896 9.5467 34.2363 10.848C33.4043 12.1493 32.9989 14.1547 33.0203 16.864C33.0203 18.592 33.1803 20.032 33.5003 21.184C33.8416 22.3147 34.3323 23.168 34.9723 23.744C35.6336 24.2987 36.4336 24.576 37.3723 24.576C38.2683 24.576 39.0789 24.192 39.8043 23.424C40.5296 22.656 40.9669 21.5253 41.1163 20.032L41.5003 20.48C41.3296 22.1013 40.8069 23.3493 39.9323 24.224C39.0789 25.0987 37.9163 25.536 36.4443 25.536C35.1216 25.536 33.9589 25.216 32.9563 24.576C31.9749 23.936 31.2176 22.976 30.6843 21.696C30.1723 20.416 29.9163 18.8053 29.9163 16.864C29.9163 14.9227 30.2469 13.312 30.9083 12.032C31.5909 10.7307 32.4763 9.76 33.5643 9.12C34.6736 8.48 35.8683 8.16 37.1483 8.16ZM62.526 8.608V9.248C62.1207 9.2907 61.7473 9.472 61.406 9.792C61.0647 10.112 60.7447 10.6773 60.446 11.488L55.198 25.248C55.1127 25.248 55.0273 25.248 54.942 25.248C54.8567 25.248 54.7607 25.248 54.654 25.248L48.766 11.072C48.4247 10.24 48.0833 9.7387 47.742 9.568C47.422 9.376 47.1447 9.28 46.91 9.28V8.608C47.3367 8.62933 47.774 8.66133 48.222 8.704C48.6913 8.72533 49.1927 8.736 49.726 8.736C50.3873 8.736 51.0807 8.72533 51.806 8.704C52.5527 8.68267 53.246 8.65067 53.886 8.608V9.28C53.3527 9.28 52.8727 9.3227 52.446 9.408C52.0407 9.472 51.774 9.6747 51.646 10.016C51.5393 10.3573 51.646 10.944 51.966 11.776L55.966 21.664L55.774 21.824L59.422 12.256C59.6993 11.552 59.806 10.9973 59.742 10.592C59.6993 10.1653 59.486 9.8453 59.102 9.632C58.7393 9.4187 58.174 9.2907 57.406 9.248V8.608C57.79 8.62933 58.1207 8.65067 58.398 8.672C58.6753 8.672 58.942 8.68267 59.198 8.704C59.4753 8.704 59.774 8.704 60.094 8.704C60.5847 8.704 61.022 8.69333 61.406 8.672C61.8113 8.65067 62.1847 8.62933 62.526 8.608ZM71.053 8.16C72.9303 8.16 74.3917 8.736 75.437 9.888C76.5037 11.0187 77.037 12.7893 77.037 15.2H65.741L65.709 14.592H73.965C74.0077 13.5467 73.9223 12.5867 73.709 11.712C73.4957 10.816 73.1543 10.1013 72.685 9.568C72.237 9.03467 71.6503 8.768 70.925 8.768C69.9437 8.768 69.069 9.2587 68.301 10.24C67.5543 11.2213 67.1063 12.7787 66.957 14.912L67.053 15.04C67.0103 15.36 66.9783 15.712 66.957 16.096C66.9357 16.48 66.925 16.864 66.925 17.248C66.925 18.6987 67.1597 19.9467 67.629 20.992C68.0983 22.0373 68.7063 22.8373 69.453 23.392C70.221 23.9253 71.0103 24.192 71.821 24.192C72.461 24.192 73.069 24.096 73.645 23.904C74.221 23.6907 74.7543 23.3493 75.245 22.88C75.7357 22.4107 76.1623 21.7813 76.525 20.992L77.165 21.248C76.9303 21.952 76.5463 22.6347 76.013 23.296C75.4797 23.9573 74.8077 24.5013 73.997 24.928C73.1863 25.3333 72.2477 25.536 71.181 25.536C69.645 25.536 68.3223 25.184 67.213 24.48C66.125 23.776 65.2823 22.8053 64.685 21.568C64.109 20.3093 63.821 18.8693 63.821 17.248C63.821 15.3707 64.1197 13.76 64.717 12.416C65.3143 11.0507 66.157 10.0053 67.245 9.28C68.333 8.53333 69.6023 8.16 71.053 8.16ZM90.2165 8.16C91.0272 8.16 91.6992 8.26667 92.2325 8.48C92.7872 8.69333 93.2458 8.992 93.6085 9.376C94.0138 9.8027 94.3018 10.336 94.4725 10.976C94.6432 11.616 94.7285 12.48 94.7285 13.568V22.112C94.7285 23.008 94.9098 23.616 95.2725 23.936C95.6565 24.256 96.2858 24.416 97.1605 24.416V25.088C96.7978 25.0667 96.2432 25.0453 95.4965 25.024C94.7498 24.9813 94.0245 24.96 93.3205 24.96C92.6165 24.96 91.9232 24.9813 91.2405 25.024C90.5792 25.0453 90.0778 25.0667 89.7365 25.088V24.416C90.5045 24.416 91.0485 24.256 91.3685 23.936C91.6885 23.616 91.8485 23.008 91.8485 22.112V12.864C91.8485 12.2027 91.7952 11.5947 91.6885 11.04C91.5818 10.4853 91.3365 10.0373 90.9525 9.696C90.5898 9.3547 90.0245 9.184 89.2565 9.184C88.3605 9.184 87.5712 9.44 86.8885 9.952C86.2272 10.464 85.7045 11.168 85.3205 12.064C84.9578 12.9387 84.7765 13.92 84.7765 15.008V22.112C84.7765 23.008 84.9365 23.616 85.2565 23.936C85.5765 24.256 86.1205 24.416 86.8885 24.416V25.088C86.5472 25.0667 86.0352 25.0453 85.3525 25.024C84.6912 24.9813 84.0085 24.96 83.3045 24.96C82.6005 24.96 81.8752 24.9813 81.1285 25.024C80.3818 25.0453 79.8272 25.0667 79.4645 25.088V24.416C80.3392 24.416 80.9578 24.256 81.3205 23.936C81.7045 23.616 81.8965 23.008 81.8965 22.112V12.096C81.8965 11.136 81.7258 10.432 81.3845 9.984C81.0432 9.5147 80.4032 9.28 79.4645 9.28V8.608C80.1472 8.672 80.8085 8.704 81.4485 8.704C82.0672 8.704 82.6538 8.672 83.2085 8.608C83.7845 8.52267 84.3072 8.40533 84.7765 8.256V12.032C85.3312 10.5813 86.0992 9.5787 87.0805 9.024C88.0832 8.448 89.1285 8.16 90.2165 8.16ZM103.71 3.296V8.64H108.446V9.28H103.71V21.664C103.71 22.6667 103.892 23.3707 104.254 23.776C104.617 24.1813 105.118 24.384 105.758 24.384C106.398 24.384 106.953 24.128 107.422 23.616C107.892 23.0827 108.297 22.1973 108.638 20.96L109.278 21.12C109.065 22.3573 108.638 23.4027 107.998 24.256C107.38 25.1093 106.42 25.536 105.118 25.536C104.393 25.536 103.796 25.44 103.326 25.248C102.857 25.0773 102.441 24.8213 102.078 24.48C101.609 23.9893 101.278 23.4027 101.086 22.72C100.916 22.0373 100.83 21.1307 100.83 20V9.28H97.7583V8.64H100.83V3.744C101.364 3.72267 101.876 3.68 102.366 3.616C102.857 3.552 103.305 3.44533 103.71 3.296ZM124.399 8.256V21.632C124.399 22.592 124.569 23.3067 124.911 23.776C125.273 24.224 125.913 24.448 126.831 24.448V25.12C126.169 25.056 125.508 25.024 124.847 25.024C124.228 25.024 123.631 25.056 123.055 25.12C122.5 25.184 121.988 25.3013 121.519 25.472V21.696C120.985 23.0827 120.228 24.0747 119.247 24.672C118.287 25.248 117.295 25.536 116.271 25.536C115.524 25.536 114.873 25.4293 114.319 25.216C113.764 25.0027 113.305 24.704 112.943 24.32C112.537 23.8933 112.26 23.3387 112.111 22.656C111.961 21.9733 111.887 21.1307 111.887 20.128V12.096C111.887 11.136 111.716 10.432 111.375 9.984C111.033 9.5147 110.393 9.28 109.455 9.28V8.608C110.137 8.672 110.799 8.704 111.439 8.704C112.057 8.704 112.644 8.672 113.199 8.608C113.775 8.52267 114.297 8.40533 114.767 8.256V20.832C114.767 21.4933 114.809 22.1013 114.895 22.656C114.98 23.2107 115.193 23.6587 115.535 24C115.876 24.3413 116.431 24.512 117.199 24.512C118.031 24.512 118.767 24.256 119.407 23.744C120.068 23.232 120.58 22.5387 120.943 21.664C121.327 20.7893 121.519 19.808 121.519 18.72V12.096C121.519 11.136 121.348 10.432 121.007 9.984C120.665 9.5147 120.025 9.28 119.087 9.28V8.608C119.769 8.672 120.431 8.704 121.071 8.704C121.689 8.704 122.276 8.672 122.831 8.608C123.407 8.52267 123.929 8.40533 124.399 8.256ZM138.417 8.16C138.993 8.16 139.494 8.27733 139.921 8.512C140.369 8.74667 140.71 9.056 140.945 9.44C141.201 9.8027 141.329 10.2187 141.329 10.688C141.329 11.2213 141.158 11.6907 140.817 12.096C140.497 12.5013 140.059 12.704 139.505 12.704C139.057 12.704 138.662 12.5653 138.321 12.288C137.979 11.9893 137.809 11.5733 137.809 11.04C137.809 10.6347 137.915 10.2933 138.129 10.016C138.363 9.7173 138.619 9.4827 138.897 9.312C138.747 9.0987 138.523 8.992 138.225 8.992C137.563 8.992 136.955 9.1947 136.401 9.6C135.846 9.984 135.377 10.4853 134.993 11.104C134.609 11.7227 134.31 12.384 134.097 13.088C133.883 13.7707 133.777 14.4107 133.777 15.008V21.792C133.777 22.8373 134.075 23.5413 134.673 23.904C135.291 24.2453 136.123 24.416 137.169 24.416V25.088C136.678 25.0667 135.985 25.0453 135.089 25.024C134.193 24.9813 133.243 24.96 132.24 24.96C131.515 24.96 130.79 24.9813 130.065 25.024C129.361 25.0453 128.827 25.0667 128.465 25.088V24.416C129.339 24.416 129.958 24.256 130.321 23.936C130.705 23.616 130.897 23.008 130.897 22.112V12.096C130.897 11.136 130.726 10.432 130.385 9.984C130.043 9.5147 129.403 9.28 128.465 9.28V8.608C129.147 8.672 129.809 8.704 130.449 8.704C131.067 8.704 131.654 8.672 132.209 8.608C132.785 8.52267 133.307 8.40533 133.777 8.256V12.256C134.011 11.6373 134.342 11.0187 134.769 10.4C135.217 9.76 135.75 9.2267 136.369 8.8C136.987 8.37333 137.67 8.16 138.417 8.16ZM149.866 8.16C151.743 8.16 153.204 8.736 154.25 9.888C155.316 11.0187 155.85 12.7893 155.85 15.2H144.554L144.522 14.592H152.778C152.82 13.5467 152.735 12.5867 152.522 11.712C152.308 10.816 151.967 10.1013 151.498 9.568C151.05 9.03467 150.463 8.768 149.738 8.768C148.756 8.768 147.882 9.2587 147.114 10.24C146.367 11.2213 145.919 12.7787 145.77 14.912L145.865 15.04C145.823 15.36 145.791 15.712 145.77 16.096C145.748 16.48 145.738 16.864 145.738 17.248C145.738 18.6987 145.972 19.9467 146.442 20.992C146.911 22.0373 147.519 22.8373 148.266 23.392C149.034 23.9253 149.823 24.192 150.634 24.192C151.274 24.192 151.882 24.096 152.458 23.904C153.034 23.6907 153.567 23.3493 154.058 22.88C154.548 22.4107 154.975 21.7813 155.338 20.992L155.978 21.248C155.743 21.952 155.359 22.6347 154.826 23.296C154.292 23.9573 153.62 24.5013 152.81 24.928C151.999 25.3333 151.06 25.536 149.994 25.536C148.458 25.536 147.135 25.184 146.026 24.48C144.938 23.776 144.095 22.8053 143.498 21.568C142.922 20.3093 142.634 18.8693 142.634 17.248C142.634 15.3707 142.932 13.76 143.53 12.416C144.127 11.0507 144.97 10.0053 146.058 9.28C147.146 8.53333 148.415 8.16 149.866 8.16Z" fill="#F8F8F8"/>
<path d="M183.687 12.0609C183.998 12.4514 183.998 13.0846 183.687 13.4751L178.608 19.8391C178.296 20.2296 177.791 20.2296 177.479 19.8391C177.167 19.4485 177.167 18.8154 177.479 18.4249L181.994 12.768L177.479 7.11116C177.167 6.72063 177.167 6.08747 177.479 5.69695C177.791 5.30642 178.296 5.30642 178.608 5.69695L183.687 12.0609ZM159.978 11.768H183.122V13.768H159.978V11.768Z" fill="#EFC224"/>
</g>
<defs>
<clipPath id="clip0_377_445">
<rect width="184" height="26" fill="white"/>
</clipPath>
</defs>
</svg>
